Coordinates
version=1
nRows=54
nColumns=12
inDegrees=yes

Units are S.I. units (second, meters, Newtons, ...)
Angles are in degrees

endheader
time	SC_y	SC_z	SC_x	AC_y	AC_z	AC_x	GH_y	GH_z	GH_yy	EL_x	PS_y
       0.0              -40.01          26.72          55.83          47.56         -19.08         0.7531         -87.44         -13.77          69.86          124.5          15.22
   0.03065              -40.01          26.72          55.83          47.56         -19.08         0.7535         -87.44         -13.75          69.87          124.4          15.24
    0.0613              -40.01          26.72          55.82          47.57         -19.08         0.7538         -87.45         -13.74          69.87          124.4          15.26
   0.09195              -40.01          26.72          55.82          47.57         -19.08         0.7542         -87.45         -13.73          69.87          124.4          15.28
    0.1226              -40.01          26.71          55.82          47.57         -19.07         0.7547         -87.45         -13.71          69.87          124.4           15.3
    0.1533              -40.01          26.71          55.82          47.58         -19.07         0.7551         -87.45          -13.7          69.88          124.4          15.32
    0.1839              -40.01          26.71          55.81          47.58         -19.07         0.7556         -87.46         -13.68          69.88          124.3          15.34
    0.2146              -40.01          26.71          55.81          47.58         -19.07         0.7561         -87.46         -13.67          69.88          124.3          15.37
    0.2452              -40.01           26.7          55.81          47.59         -19.07         0.7567         -87.47         -13.65          69.89          124.3           15.4
    0.2759              -40.01           26.7           55.8          47.59         -19.07         0.7573         -87.47         -13.63          69.89          124.3          15.43
    0.3065              -40.01          26.69           55.8           47.6         -19.06         0.7579         -87.48         -13.61           69.9          124.2          15.46
    0.3372              -40.01          26.69          55.79           47.6         -19.06         0.7586         -87.48         -13.58           69.9          124.2          15.49
    0.3678              -40.01          26.69          55.79          47.61         -19.06         0.7593         -87.49         -13.56           69.9          124.2          15.53
    0.3985              -40.01          26.68          55.79          47.61         -19.06         0.7601         -87.49         -13.53          69.91          124.1          15.56
    0.4291              -40.01          26.67          55.78          47.62         -19.06          0.761          -87.5          -13.5          69.91          124.1          15.61
    0.4598              -40.01          26.67          55.77          47.63         -19.05         0.7619          -87.5         -13.47          69.92          124.1          15.65
    0.4904              -40.01          26.66          55.77          47.64         -19.05         0.7629         -87.51         -13.44          69.93          124.0           15.7
    0.5211              -40.02          26.66          55.76          47.64         -19.05          0.764         -87.52          -13.4          69.93          124.0          15.76
    0.5517              -40.02          26.65          55.75          47.65         -19.04         0.7652         -87.53         -13.36          69.94          123.9          15.82
    0.5824              -40.02          26.64          55.75          47.66         -19.04         0.7665         -87.54         -13.31          69.95          123.8          15.88
     0.613              -40.02          26.63          55.74          47.67         -19.03          0.768         -87.55         -13.26          69.96          123.8          15.95
    0.6437              -40.02          26.62          55.73          47.69         -19.03         0.7696         -87.56         -13.21          69.97          123.7          16.03
    0.6743              -40.02          26.61          55.72           47.7         -19.02         0.7713         -87.58         -13.15          69.98          123.6          16.12
     0.705              -40.02           26.6          55.71          47.72         -19.02         0.7733         -87.59         -13.09          69.99          123.5          16.21
    0.7356              -40.02          26.58          55.69          47.73         -19.01         0.7755         -87.61         -13.01          70.01          123.4          16.32
    0.7663              -40.02          26.57          55.68          47.75          -19.0         0.7779         -87.62         -12.93          70.02          123.3          16.44
    0.7969              -40.02          26.55          55.66          47.77          -19.0         0.7806         -87.64         -12.84          70.04          123.2          16.57
    0.8276              -40.02          26.53          55.64          47.79         -18.99         0.7836         -87.67         -12.74          70.06          123.0          16.72
    0.8582              -40.02          26.51          55.62          47.82         -18.98         0.7871         -87.69         -12.62          70.08          122.9          16.89
    0.8889              -40.02          26.49           55.6          47.85         -18.96          0.791         -87.72         -12.49          70.11          122.7          17.08
    0.9195              -40.02          26.46          55.57          47.88         -18.95         0.7955         -87.75         -12.34          70.14          122.5           17.3
    0.9502              -40.02          26.43          55.54          47.92         -18.94         0.8006         -87.79         -12.16          70.17          122.3          17.55
    0.9808              -40.03          26.39           55.5          47.97         -18.92         0.8065         -87.84         -11.96          70.21          122.0          17.84
     1.011              -40.03          26.35          55.46          48.02          -18.9         0.8134         -87.89         -11.73          70.25          121.7          18.18
     1.042              -40.03           26.3          55.41          48.08         -18.87         0.8215         -87.95         -11.46           70.3          121.3          18.57
     1.073              -40.03          26.24          55.35          48.16         -18.84          0.831         -88.02         -11.14          70.37          120.9          19.04
     1.103              -40.04          26.17          55.29          48.24         -18.81         0.8422          -88.1         -10.76          70.44          120.3          19.59
     1.134              -40.04          26.08           55.2          48.35         -18.77         0.8558          -88.2          -10.3          70.52          119.7          20.25
     1.165              -40.04          25.98           55.1          48.47         -18.72         0.8721         -88.32         -9.748          70.63          119.0          21.05
     1.195              -40.05          25.85          54.98          48.62         -18.66         0.8921         -88.47         -9.073          70.76          118.0          22.03
     1.226              -40.06           25.7          54.83          48.81         -18.59         0.9167         -88.66          -8.24          70.92          116.9          23.24
     1.257              -40.06          25.51          54.65          49.05         -18.49         0.9475         -88.89         -7.202          71.12          115.5          24.74
     1.287              -40.07          25.26          54.41          49.34         -18.38         0.9862         -89.17         -5.893          71.36          113.7          26.64
     1.318              -40.09          24.95          54.11          49.72         -18.23          1.035         -89.54          -4.23          71.68          111.4          29.05
     1.349               -40.1          24.56          53.73           50.2         -18.04          1.098         -90.01         -2.102          72.09          108.5          32.14
     1.379              -40.13          24.05          53.24          50.82          -17.8          1.179         -90.61         0.6301          72.61          104.8           36.1
      1.41              -40.15           23.4          52.61          51.61         -17.49          1.283         -91.38          4.119          73.27          99.99          41.16
     1.441              -40.19          22.59          51.82          52.61          -17.1          1.413         -92.34          8.507          74.11          93.98          47.52
     1.471              -40.23           21.6          50.85          53.82         -16.62          1.571         -93.52          13.85          75.13          86.67          55.28
     1.502              -40.28          20.45          49.74          55.22         -16.07          1.754         -94.89          20.05          76.31          78.19          64.27
     1.533              -40.33           19.2          48.53          56.74         -15.47          1.953         -96.36          26.76          77.59          69.01           74.0
     1.563              -40.38          17.95          47.32          58.26         -14.87          2.152         -97.84          33.47          78.87          59.83          83.73
     1.594              -40.43           16.8          46.21          59.67         -14.32          2.335         -99.21          39.67          80.05          51.35          92.72
     1.624              -40.48          15.81          45.24          60.88         -13.84          2.494         -100.4          45.02          81.06          44.03          100.5
